<svg width="40" height="24" viewBox="0 0 40 24" fill="none" xmlns="http://www.w3.org/2000/svg">
<g opacity="0.2" clip-path="url(#clip0_9623_106224)">
<rect width="40" height="24" rx="12" fill="#004792"/>
<g filter="url(#filter0_d_9623_106224)">
<path fill-rule="evenodd" clip-rule="evenodd" d="M28 22C33.5228 22 38 17.5228 38 12C38 6.47715 33.5228 2 28 2C22.4772 2 18 6.47715 18 12C18 17.5228 22.4772 22 28 22Z" fill="white"/>
<path fill-rule="evenodd" clip-rule="evenodd" d="M28 22C33.5228 22 38 17.5228 38 12C38 6.47715 33.5228 2 28 2C22.4772 2 18 6.47715 18 12C18 17.5228 22.4772 22 28 22Z" stroke="#F3F3F3"/>
</g>
</g>
<defs>
<filter id="filter0_d_9623_106224" x="14.5" y="-0.5" width="27" height="27" filterUnits="userSpaceOnUse" color-interpolation-filters="sRGB">
<feFlood flood-opacity="0" result="BackgroundImageFix"/>
<feColorMatrix in="SourceAlpha" type="matrix" values="0 0 0 0 0 0 0 0 0 0 0 0 0 0 0 0 0 0 127 0" result="hardAlpha"/>
<feOffset dy="1"/>
<feGaussianBlur stdDeviation="1.5"/>
<feColorMatrix type="matrix" values="0 0 0 0 0 0 0 0 0 0 0 0 0 0 0 0 0 0 0.2 0"/>
<feBlend mode="normal" in2="BackgroundImageFix" result="effect1_dropShadow_9623_106224"/>
<feBlend mode="normal" in="SourceGraphic" in2="effect1_dropShadow_9623_106224" result="shape"/>
</filter>
<clipPath id="clip0_9623_106224">
<rect width="40" height="24" fill="white"/>
</clipPath>
</defs>
</svg>
