<svg xmlns="http://www.w3.org/2000/svg" width="20" height="20" fill="none" xmlns:v="https://vecta.io/nano"><g clip-path="url(#A)"><path fill-rule="evenodd" d="M1.478.04C.662.04 0 .682 0 1.473v17.135c0 .791.662 1.432 1.478 1.432h17.044c.816 0 1.478-.641 1.478-1.432V1.473C20 .682 19.338.04 18.522.04H1.478zm4.6 7.733v9.004H3.085V7.773h2.993zm.197-2.785c0 .864-.65 1.555-1.693 1.555h0-.019c-1.004 0-1.654-.691-1.654-1.555 0-.884.669-1.556 1.693-1.556s1.654.672 1.673 1.556zm4.452 11.789H7.734h0V7.774h2.993v1.274c.398-.613 1.11-1.486 2.697-1.486 1.969 0 3.445 1.287 3.445 4.053v5.163h-2.993v-4.816c0-1.21-.433-2.036-1.516-2.036-.827 0-1.319.557-1.536 1.095-.079.192-.099.461-.099.73v5.028z" fill="#000"/></g><defs><clipPath id="A"><path fill="#fff" d="M0 0h20v20H0z"/></clipPath></defs></svg>