<svg xmlns="http://www.w3.org/2000/svg" width="20" height="20" fill="none" xmlns:v="https://vecta.io/nano"><g clip-path="url(#A)"><path fill-rule="evenodd" d="M10.182 19.485c-1.722 0-3.339-.44-4.746-1.212L0 20l1.772-5.227C.878 13.305.363 11.583.363 9.742.363 4.362 4.759 0 10.182 0S20 4.362 20 9.742s-4.396 9.742-9.818 9.742zm0-17.933c-4.552 0-8.255 3.674-8.255 8.191 0 1.792.584 3.452 1.572 4.802l-1.031 3.042 3.172-1.008a8.25 8.25 0 0 0 4.542 1.355c4.551 0 8.255-3.674 8.255-8.191s-3.703-8.191-8.255-8.191zm4.958 10.435c-.06-.099-.221-.159-.461-.279s-1.424-.697-1.645-.777-.382-.12-.542.119a13.78 13.78 0 0 1-.762.936c-.14.16-.281.18-.521.06s-1.016-.372-1.936-1.185c-.715-.633-1.198-1.414-1.339-1.654s-.015-.368.106-.487c.108-.107.241-.279.361-.418s.16-.239.24-.398.04-.299-.02-.418-.542-1.294-.742-1.773-.401-.398-.541-.398-.301-.02-.461-.02-.421.06-.642.299-.842.817-.842 1.992.862 2.31.983 2.47 1.664 2.649 4.111 3.605 2.447.637 2.889.597 1.423-.577 1.624-1.135.2-1.036.14-1.136z" fill="#000"/></g><defs><clipPath id="A"><path fill="#fff" d="M0 0h20v20H0z"/></clipPath></defs></svg>