<svg xmlns="http://www.w3.org/2000/svg" width="20" height="20" fill="none" xmlns:v="https://vecta.io/nano"><path fill-rule="evenodd" d="M19.8 6.02s-.196-1.372-.795-1.976c-.761-.793-1.613-.797-2.004-.843L10.004 3h-.009l-6.997.202c-.391.046-1.243.05-2.004.843C.395 4.648.2 6.02.2 6.02S0 7.631 0 9.241v1.51c0 1.611.2 3.222.2 3.222s.195 1.372.794 1.976c.761.793 1.761.768 2.206.851 1.6.153 6.8.2 6.8.2l7.001-.208c.391-.047 1.243-.05 2.004-.843.599-.604.795-1.976.795-1.976s.2-1.611.2-3.222v-1.51c0-1.61-.2-3.222-.2-3.222zM7.935 12.582l-.001-5.593 5.404 2.806-5.403 2.787z" fill="#000"/></svg>