<svg width="22" height="21" viewBox="0 0 22 21" fill="none" xmlns="http://www.w3.org/2000/svg">
<path d="M9.07399 11.4665C9.48903 12.0213 10.0185 12.4804 10.6266 12.8127C11.2347 13.1449 11.9071 13.3424 12.5982 13.3919C13.2894 13.4414 13.9831 13.3417 14.6323 13.0995C15.2815 12.8574 15.871 12.4784 16.3609 11.9884L19.2602 9.08905C20.1404 8.17769 20.6275 6.95707 20.6165 5.69009C20.6055 4.42311 20.0973 3.21114 19.2014 2.31521C18.3054 1.41929 17.0935 0.911095 15.8265 0.900085C14.5595 0.889075 13.3389 1.37613 12.4275 2.25635L10.7653 3.90896" stroke="#989898"  stroke-miterlimit="10" stroke-linecap="round"/>
<path d="M12.9403 9.53327C12.5252 8.97841 11.9957 8.5193 11.3876 8.18708C10.7796 7.85486 10.1071 7.6573 9.41601 7.6078C8.72487 7.55831 8.03117 7.65803 7.38196 7.9002C6.73275 8.14238 6.14321 8.52134 5.65334 9.01139L2.75403 11.9107C1.87381 12.8221 1.38676 14.0427 1.39777 15.3097C1.40878 16.5766 1.91697 17.7886 2.8129 18.6845C3.70882 19.5805 4.92079 20.0887 6.18777 20.0997C7.45475 20.1107 8.67537 19.6236 9.58673 18.7434L11.2393 17.0908"  stroke="#989898" stroke-miterlimit="10" stroke-linecap="round"/>
</svg>
